# xmcd CD database file
#
# Track frame offsets:
#	150
#	9373
#	26886
#	34395
#	65224
#	82843
#	97185
#	114211
#	144133
#	185176
#	229519
#	250070
#	263409
#
# Disc length: 3730 seconds
#
# Revision: 2
# Processed by: cddbd v1.5.2PL0 Copyright (c) Steve Scherf et al.
# Submitted via: CDex 1.51
#
DISCID=a50e900d
DTITLE=FESACI - Je nam 40 [CD2 - Fesaci za velkou louzi)
DYEAR=2007
DGENRE=Country
TTITLE0=Uvod
TTITLE1=Zajimavosti
TTITLE2=Klatovy
TTITLE3=Cesta do USA
TTITLE4=Chicago I.
TTITLE5=Chicago II.
TTITLE6=Kentucky
TTITLE7=Nashville
TTITLE8=Opryland
TTITLE9=Grand Ole Opry
TTITLE10=Bill Monroe
TTITLE11=Finale
TTITLE12=Georgia On My Mind
EXTD=YEAR: 2007
EXTT0=
EXTT1=
EXTT2=
EXTT3=
EXTT4=
EXTT5=
EXTT6=
EXTT7=
EXTT8=
EXTT9=
EXTT10=
EXTT11=
EXTT12=
PLAYORDER=
